Motion_kv06_l
version=1
nRows=16
nColumns=43
inDegrees=yes
endheader
time	pelvis_tilt	pelvis_list	pelvis_rotation	pelvis_tx	pelvis_ty	pelvis_tz	hip_flexion_r	hip_adduction_r	hip_rotation_r	knee_angle_r	ankle_angle_r	subtalar_angle_r	mtp_angle_r	hip_flexion_l	hip_adduction_l	hip_rotation_l	knee_angle_l	ankle_angle_l	subtalar_angle_l	mtp_angle_l	lumbar_extension	lumbar_bending	lumbar_rotation	neck_flexion	neck_lateral_bending	neck_rotation	arm_flex_r	arm_add_r	arm_rot_r	elbow_flex_r	pro_sup_r	wrist_flex_r	wrist_dev_r	hand_finger_flex_r	arm_flex_l	arm_add_l	arm_rot_l	elbow_flex_l	pro_sup_l	wrist_flex_l	wrist_dev_l	hand_finger_flex_l
      0.45250000	      5.48169700	    -57.94493309	     95.97017781	      0.00428264	      1.34089848	      1.41287939	     69.76637344	     -4.53857575	     -9.52297841	    -83.64965678	     16.13951294	    -11.21056329	     -8.16715486	     66.06267421	     -1.15386461	      5.29682589	    -83.27718857	     26.89828209	     -2.23245851	    -15.33004603	    -37.68542751	      1.73540508	      2.45235485	     59.99999993	     -0.15914528	      3.46635254	    399.19664080	    -39.55726687	    363.62414175	     83.59253623	    155.50727590	    -54.84193554	    -17.15304502	     87.06534787	     44.42264995	    -35.87420199	     13.11566514	     84.00953667	    160.38877133	    -62.53325903	    -10.06596767	     90.00021046
      0.45500000	      5.54518468	    -57.80930054	     95.94028168	      0.00433851	      1.34544521	      1.41063164	     70.48659443	     -4.44768073	     -9.41456177	    -85.33242819	     16.82452739	    -11.42976043	     -7.96712830	     66.75607346	     -1.11048456	      5.31560052	    -85.13498572	     27.31613938	     -2.14635608	    -15.23121180	    -38.17674869	      1.77046564	      2.56838750	     59.99999993	     -0.19734906	      3.50537154	    399.92410779	    -39.26940456	    363.86092009	     82.93295773	    155.55620323	    -54.75743904	    -17.28595888	     87.03695319	     45.07233557	    -35.71072389	     13.48229731	     83.28789004	    160.36364628	    -62.57878262	    -10.13742187	     90.00021046
      0.45750000	      5.60073004	    -57.70488855	     95.90670900	      0.00451635	      1.34990443	      1.40850340	     71.27233330	     -4.35536324	     -9.31233212	    -87.02846998	     17.48453399	    -11.55841098	     -7.77049821	     67.49811756	     -1.07473463	      5.34364029	    -86.98079337	     27.74354123	     -1.94822996	    -15.13694327	    -38.62565514	      1.77644998	      2.66094653	     59.99999993	     -0.23819695	      3.55133703	    400.63928500	    -38.98159385	    364.12674479	     82.24350158	    155.59131651	    -54.69796121	    -17.43433414	     87.00046630	     45.72718586	    -35.58162797	     13.85405566	     82.57669058	    160.29056922	    -62.69446984	    -10.18120364	     90.00021046
      0.46000000	      5.66467227	    -57.91129102	     95.85229905	      0.00469072	      1.35378363	      1.40700869	     72.43856815	     -4.26565500	     -9.12511368	    -88.74722792	     18.14625553	    -11.15557536	     -7.18665426	     68.64324182	     -1.09509408	      5.33126335	    -88.93626517	     28.33655375	     -1.01541777	    -14.91605167	    -38.69805508	      1.76870466	      2.65138897	     59.99999993	     -0.17085499	      3.66003243	    401.38834108	    -38.59350201	    364.51220762	     81.40713343	    155.23550441	    -55.27258589	    -17.97404618	     87.00867425	     46.24719589	    -35.73256602	     14.48352539	     81.82349725	    159.52860969	    -64.04380783	    -10.17181564	     90.00021046
      0.46250000	      5.68399184	    -57.69117092	     95.81248851	      0.00465458	      1.35831144	      1.40465644	     73.08847846	     -4.20424224	     -9.03623513	    -90.38092457	     18.72861077	    -11.40446862	     -7.03169510	     69.24392454	     -1.00422136	      5.33064375	    -90.70774594	     28.66993547	     -1.06011748	    -14.85261974	    -39.25928127	      1.81334015	      2.73511175	     59.99999993	     -0.25634842	      3.69474318	    402.14907558	    -38.36793228	    364.81651707	     80.72124418	    155.25842359	    -55.12439956	    -18.10859798	     86.99578101	     46.91499239	    -35.54103773	     14.80967738	     81.03190334	    159.53526704	    -63.98377499	    -10.23132268	     90.00021046
      0.46500000	      5.69530898	    -57.52508461	     95.76221392	      0.00469313	      1.36269910	      1.40245304	     73.81675165	     -4.14638526	     -8.94390150	    -92.01002875	     19.30764583	    -11.48264912	     -6.87063642	     69.92137258	     -0.92619469	      5.33529884	    -92.48725415	     29.03305979	     -0.88695345	    -14.78781572	    -39.74389083	      1.83221362	      2.79081681	     59.99999993	     -0.32042537	      3.74452755	    402.92397455	    -38.12756403	    365.18129563	     79.98997134	    155.24444787	    -54.98967744	    -18.24858984	     86.97415490	     47.59252846	    -35.42099022	     15.22918753	     80.27490068	    159.49528259	    -63.99930668	    -10.26590756	     90.00021046
      0.46750000	      5.69509933	    -57.40944758	     95.69940610	      0.00462608	      1.36700931	      1.40040505	     74.60731528	     -4.09316620	     -8.82976255	    -93.60538423	     19.90856482	    -11.40509397	     -6.68758374	     70.67173834	     -0.84241932	      5.30771432	    -94.26775806	     29.43790308	     -0.53215686	    -14.71694283	    -40.16381748	      1.86240508	      2.81524950	     59.99999993	     -0.35670512	      3.80871291	    403.74427990	    -37.90052118	    365.61749143	     79.22970796	    155.17263965	    -54.89357106	    -18.41582047	     86.94893091	     48.26790040	    -35.37297064	     15.71357466	     79.49656249	    159.38174527	    -64.12767601	    -10.25930305	     90.00021046
      0.47000000	      5.51530775	    -57.39566852	     95.50147010	      0.00450767	      1.37095025	      1.39857851	     75.55479253	     -4.12409158	     -8.57125862	    -95.28634297	     20.62141093	    -10.77719307	     -5.85920907	     71.53545275	     -0.72145103	      5.19335841	    -96.06510320	     29.92710187	      0.10868471	    -14.53565850	    -40.45794722	      1.83939633	      2.57210294	     59.99999993	     -0.30713899	      4.02367756	    404.85360718	    -37.57229372	    366.56511107	     78.06964535	    154.03491825	    -55.92122790	    -19.45772210	     87.17941357	     48.80476049	    -35.66841547	     16.47011355	     78.63085784	    158.22119300	    -66.17713018	    -10.10319563	     90.00021046
      0.47250000	      5.52589946	    -57.18385713	     95.46597702	      0.00445427	      1.37533689	      1.39632144	     76.24271261	     -4.07767640	     -8.49967236	    -96.82714795	     21.02401719	    -10.78230697	     -5.74577938	     72.18008181	     -0.63678680	      5.17764200	    -97.76779314	     30.20983223	      0.32809973	    -14.48711835	    -40.96792276	      1.87988613	      2.62311513	     59.99999993	     -0.36023560	      4.05485438	    405.63073672	    -37.28298924	    366.86086834	     77.30000490	    154.04807726	    -55.69223363	    -19.53169751	     87.17694503	     49.49132513	    -35.47996130	     16.83511847	     77.81063738	    158.30679799	    -65.94963512	    -10.16374575	     90.00021046
      0.47500000	      5.47728673	    -57.13043498	     95.38897962	      0.00440888	      1.37930111	      1.39449261	     77.14517913	     -4.08922059	     -8.36094782	    -98.42905117	     21.68281252	    -10.09115411	     -5.40961594	     73.03011882	     -0.56768405	      5.14082815	    -99.52675104	     30.72222330	      1.26615633	    -14.36767859	    -41.28576087	      1.88568908	      2.53696514	     59.99999993	     -0.32731097	      4.16667047	    406.50237383	    -37.05679311	    367.50412610	     76.44780178	    153.66529205	    -55.75987225	    -19.78314796	     87.23153089	     50.09942992	    -35.58776975	     17.41251205	     77.11691408	    158.05497300	    -66.31114978	    -10.05391213	     90.00021046
      0.47750000	      5.47751263	    -56.90488965	     95.35865547	      0.00431305	      1.38361678	      1.39222514	     77.82395189	     -4.03138352	     -8.27942905	    -99.93659477	     22.10098891	    -10.08313447	     -5.30217122	     73.65589987	     -0.46688531	      5.10611442	   -101.16078706	     30.99295578	      1.39400173	    -14.31700565	    -41.79013636	      1.93447702	      2.57179726	     59.99999993	     -0.38134533	      4.20833951	    407.30788077	    -36.80422401	    367.87639377	     75.63772084	    153.69304398	    -55.55959795	    -19.87538383	     87.20882551	     50.75656404	    -35.32273879	     17.70905882	     76.23247865	    158.08259300	    -66.18876036	    -10.02977286	     90.00021046
      0.48000000	      5.41136363	    -56.82365421	     95.30452064	      0.00411408	      1.38757244	      1.39037929	     78.70100933	     -4.07663687	     -8.10259786	   -101.49122465	     22.79660457	     -9.09727779	     -4.92782201	     74.48292562	     -0.36678609	      5.03861816	   -102.85673407	     31.47063182	      2.36282014	    -14.15538905	    -42.12047985	      1.98997778	      2.37168058	     59.99999993	     -0.33775377	      4.38506569	    408.35273258	    -36.51700355	    368.77466661	     74.62187088	    153.15874587	    -55.85322296	    -20.17455483	     87.22811408	     51.33948425	    -35.48977850	     18.32684144	     75.45722123	    157.75048694	    -67.04011174	     -9.75776350	     90.00021046
      0.48250000	      5.39883125	    -56.60533936	     95.26978371	      0.00392625	      1.39177317	      1.38826030	     79.42175386	     -4.03351836	     -8.00308719	   -102.96998809	     23.19737070	     -8.87744101	     -4.76384564	     75.14535821	     -0.24734556	      4.99462210	   -104.47191174	     31.73252680	      2.66040008	    -14.06816210	    -42.60791553	      2.05158857	      2.36001662	     59.99999993	     -0.37394779	      4.45878965	    409.27843509	    -36.38740608	    369.44097167	     73.77404809	    153.14121386	    -55.78006730	    -20.40977953	     87.23571582	     52.03494413	    -35.37486172	     18.80139165	     74.58652943	    157.80754014	    -67.12031228	     -9.75185893	     90.00021046
      0.48500000	      5.39531334	    -56.37052723	     95.23988595	      0.00376174	      1.39601924	      1.38599224	     80.10299900	     -4.01898615	     -7.96770510	   -104.38755560	     23.53653580	     -8.67746916	     -4.66110338	     75.78030134	     -0.16385149	      4.93668097	   -106.03629849	     31.99318983	      2.94460414	    -14.00425811	    -43.09543438	      2.09799083	      2.37926513	     59.99999993	     -0.37970115	      4.49982327	    410.09134316	    -36.05473669	    369.77604738	     72.84654172	    153.10392895	    -55.60414312	    -20.44542390	     87.20895272	     52.66263826	    -35.02508334	     19.02485257	     73.63934658	    157.81124407	    -67.06948326	     -9.67347626	     90.00021046
      0.48750000	      5.37095151	    -56.21920496	     95.24554348	      0.00349770	      1.39991219	      1.38402872	     80.90282312	     -4.07856162	     -7.80157091	   -105.88317612	     24.27994552	     -7.33082261	     -4.26959097	     76.53458882	     -0.06788628	      4.90323681	   -107.64238784	     32.49841481	      4.12682698	    -13.75393821	    -43.47411064	      2.20155306	      2.16192704	     59.99999993	     -0.31827355	      4.70128676	    411.20687484	    -35.76247519	    370.85525720	     71.73596756	    152.42724044	    -56.08680955	    -20.69378059	     87.22720102	     53.21837873	    -35.11660135	     19.59051821	     72.77837655	    157.57117957	    -68.22738721	     -9.36077725	     90.00021046
      0.49000000	      5.37357694	    -55.95351559	     95.22075064	      0.00325493	      1.40411264	      1.38176588	     81.56593096	     -4.04870939	     -7.77004030	   -107.23759237	     24.52743150	     -7.21877802	     -4.18332326	     77.15495791	      0.03389117	      4.83369547	   -109.17009253	     32.69444301	      4.30923021	    -13.68781194	    -43.98294847	      2.25413267	      2.20348447	     59.99999993	     -0.31139072	      4.73094629	    412.05008008	    -35.55728100	    371.33131438	     70.83187436	    152.49094400	    -55.88969452	    -20.81089623	     87.21807601	     53.89160187	    -34.74653364	     19.87769422	     71.79820760	    157.65131194	    -68.10590379	     -9.34483707	     90.00021046
